<svg width="7" height="20" viewBox="0 0 7 20" fill="none" xmlns="http://www.w3.org/2000/svg">
<path d="M6.87428 0.986725C6.87405 0.971256 6.87318 0.95578 6.87194 0.940261C6.87112 0.929733 6.87016 0.919296 6.86887 0.908905C6.86727 0.895951 6.86526 0.882995 6.86297 0.870041C6.86068 0.856995 6.85816 0.844085 6.85523 0.831314C6.85285 0.821152 6.8502 0.811036 6.8474 0.800918C6.84324 0.785858 6.83875 0.771027 6.83367 0.756378C6.83225 0.752167 6.83134 0.74791 6.82983 0.743698C6.82813 0.739166 6.82598 0.734955 6.82424 0.730469C6.81857 0.715774 6.81246 0.70134 6.80593 0.687165C6.80172 0.677915 6.79733 0.66879 6.79275 0.65979C6.78657 0.647705 6.78007 0.635819 6.77325 0.62413C6.76721 0.613648 6.76103 0.603348 6.75453 0.593231C6.74835 0.58371 6.74189 0.574463 6.7353 0.565216C6.72738 0.554046 6.71932 0.543106 6.71081 0.532486C6.70459 0.524658 6.69809 0.517105 6.69159 0.509552C6.6822 0.498749 6.67268 0.488083 6.66274 0.477874C6.65579 0.470733 6.64855 0.463867 6.64132 0.457001C6.63134 0.44748 6.62127 0.438141 6.61079 0.429214C6.60237 0.422027 6.59362 0.415253 6.58488 0.408432C6.57508 0.400833 6.56524 0.39328 6.55508 0.386139C6.54469 0.37886 6.53398 0.37204 6.52322 0.365311C6.51411 0.359592 6.505 0.353821 6.49562 0.348511C6.48339 0.341552 6.4709 0.335144 6.45826 0.328873C6.44961 0.32457 6.441 0.320267 6.43217 0.316284C6.41889 0.310333 6.40539 0.304932 6.3917 0.299713C6.38264 0.29628 6.37362 0.292847 6.36437 0.289734C6.35128 0.285293 6.33796 0.281403 6.32455 0.277695C6.31384 0.274719 6.30317 0.271927 6.29237 0.269409C6.28047 0.266708 6.26843 0.264374 6.25634 0.262222C6.24316 0.259842 6.23002 0.257828 6.2167 0.25618C6.20649 0.254943 6.19624 0.253936 6.18589 0.253066C6.17056 0.251831 6.15513 0.251053 6.13961 0.250732C6.13467 0.250641 6.12991 0.25 6.12496 0.25C6.12043 0.25 6.11599 0.250595 6.1115 0.250686C6.09612 0.250961 6.08074 0.251785 6.06532 0.253022C6.05474 0.253846 6.04426 0.254803 6.03382 0.256088C6.02087 0.25769 6.00796 0.259705 5.995 0.261994C5.98196 0.264283 5.96905 0.266801 5.95628 0.269776C5.94612 0.27211 5.936 0.274765 5.92588 0.277557C5.91082 0.281676 5.89599 0.286208 5.88134 0.291289C5.87713 0.292709 5.87287 0.293624 5.86866 0.295133C5.85941 0.29852 5.8503 0.302549 5.8411 0.305982C5.83762 0.3074 5.83405 0.308637 5.83057 0.310101C3.8984 1.03625 2.35107 3.4066 1.23147 7.35806C0.723603 9.18144 0.355139 11.0408 0.129266 12.9201C0.118059 13.0247 0.128994 13.1305 0.161359 13.2306C0.193725 13.3308 0.246798 13.423 0.317128 13.5012C0.387458 13.5795 0.473472 13.6421 0.569579 13.685C0.665685 13.7278 0.769734 13.75 0.874963 13.75H5.37496V19C5.37496 19.1989 5.45398 19.3897 5.59463 19.5303C5.73528 19.671 5.92605 19.75 6.12496 19.75C6.32387 19.75 6.51464 19.671 6.65529 19.5303C6.79595 19.3897 6.87496 19.1989 6.87496 19V1C6.87496 0.995514 6.87437 0.991211 6.87428 0.986725Z" fill="black"/>
</svg>
