<svg width="9" height="20" viewBox="0 0 9 20" fill="none" xmlns="http://www.w3.org/2000/svg">
<path d="M8.99895 5.47887C8.99854 5.46532 8.99803 5.45177 8.99688 5.43813C8.99574 5.42444 8.99405 5.41094 8.99222 5.39748C8.99121 5.39052 8.99093 5.38361 8.98979 5.37661L8.23979 0.876609C8.22365 0.779407 8.18852 0.686338 8.1364 0.60272C8.08427 0.519102 8.01619 0.446573 7.93602 0.389279C7.85586 0.331985 7.7652 0.291047 7.66921 0.268807C7.57322 0.246566 7.47379 0.243457 7.3766 0.259659C7.2794 0.275861 7.18636 0.311055 7.10277 0.36323C7.01919 0.415405 6.9467 0.483539 6.88946 0.563738C6.83222 0.643938 6.79134 0.73463 6.76916 0.830634C6.74699 0.926638 6.74394 1.02607 6.76021 1.12325L7.36464 4.74993H5.625V0.99993C5.625 0.801018 5.54598 0.610252 5.40533 0.4696C5.26468 0.328948 5.07391 0.24993 4.875 0.24993C4.67609 0.24993 4.48532 0.328948 4.34467 0.4696C4.20402 0.610252 4.125 0.801018 4.125 0.99993V4.74993H2.38536L2.98979 1.12325C3.00606 1.02607 3.00301 0.926638 2.98083 0.830634C2.95866 0.73463 2.91778 0.643938 2.86053 0.563738C2.80329 0.483539 2.73081 0.415405 2.64722 0.36323C2.56364 0.311055 2.47059 0.275861 2.3734 0.259659C2.27621 0.243457 2.17678 0.246566 2.08079 0.268807C1.9848 0.291047 1.89413 0.331985 1.81397 0.389279C1.73381 0.446573 1.66572 0.519102 1.6136 0.60272C1.56148 0.686338 1.52635 0.779407 1.51021 0.876609L0.760208 5.37661C0.759064 5.38361 0.758789 5.39052 0.757782 5.39748C0.755951 5.41094 0.754257 5.42444 0.753112 5.43813C0.751969 5.45177 0.751464 5.46532 0.75105 5.47887C0.75087 5.48592 0.75 5.49284 0.75 5.49993C0.75 5.50661 0.750458 5.51316 0.750504 5.5198C0.750641 5.52442 0.750641 5.529 0.75087 5.53358C0.759927 6.49114 1.1014 7.4158 1.71687 8.14941C2.33235 8.88302 3.18359 9.38 4.125 9.55535V18.9999C4.125 19.1988 4.20402 19.3896 4.34467 19.5303C4.48532 19.6709 4.67609 19.7499 4.875 19.7499C5.07391 19.7499 5.26468 19.6709 5.40533 19.5303C5.54598 19.3896 5.625 19.1988 5.625 18.9999V9.55535C6.56641 9.38 7.41765 8.88302 8.03313 8.14941C8.6486 7.4158 8.99007 6.49113 8.99913 5.53358C8.99936 5.529 8.99936 5.52442 8.9995 5.51979C8.99954 5.51316 9 5.50661 9 5.49993C9 5.49284 8.99913 5.48592 8.99895 5.47887Z" fill="black"/>
</svg>
